<mxfile host="65bd71144e">
    <diagram id="D9xP1EmpJRqnb_IF-IZ-" name="Page-1">
        <mxGraphModel dx="1386" dy="1538" grid="1" gridSize="10" guides="1" tooltips="1" connect="1" arrows="1" fold="1" page="1" pageScale="1" pageWidth="827" pageHeight="1169" math="0" shadow="0">
            <root>
                <mxCell id="0"/>
                <mxCell id="1" parent="0"/>
                <mxCell id="2" value="" style="rounded=1;whiteSpace=wrap;html=1;" vertex="1" parent="1">
                    <mxGeometry x="-95" width="170" height="250" as="geometry"/>
                </mxCell>
                <mxCell id="3" value="&lt;ul&gt;&lt;li&gt;&lt;span style=&quot;text-align: center;&quot;&gt;Setup Project:&lt;/span&gt;&lt;/li&gt;&lt;li&gt;&lt;span style=&quot;text-align: center;&quot;&gt;VScode&amp;nbsp;&lt;/span&gt;&lt;/li&gt;&lt;li&gt;Add repo to Git&lt;/li&gt;&lt;li&gt;Node&lt;/li&gt;&lt;li&gt;&lt;div style=&quot;text-align: left;&quot;&gt;NPM and Express&lt;/div&gt;&lt;/li&gt;&lt;li&gt;.gitignore - node_modules&lt;/li&gt;&lt;li&gt;&lt;div style=&quot;text-align: left;&quot;&gt;&lt;span style=&quot;text-align: center; background-color: initial;&quot;&gt;check package.json for scripts and dependencies&lt;/span&gt;&lt;/div&gt;&lt;/li&gt;&lt;li&gt;&lt;div style=&quot;text-align: left;&quot;&gt;Ideation&lt;/div&gt;&lt;/li&gt;&lt;li&gt;&lt;div style=&quot;text-align: left;&quot;&gt;plan MVPs&lt;/div&gt;&lt;/li&gt;&lt;/ul&gt;" style="text;strokeColor=none;fillColor=none;html=1;whiteSpace=wrap;verticalAlign=middle;overflow=hidden;" vertex="1" parent="1">
                    <mxGeometry x="-115" y="-20" width="190" height="290" as="geometry"/>
                </mxCell>
                <mxCell id="6" value="" style="verticalLabelPosition=bottom;verticalAlign=top;html=1;shape=mxgraph.basic.tick" vertex="1" parent="1">
                    <mxGeometry x="-30" y="50" width="20" height="10" as="geometry"/>
                </mxCell>
                <mxCell id="7" value="" style="verticalLabelPosition=bottom;verticalAlign=top;html=1;shape=mxgraph.basic.tick" vertex="1" parent="1">
                    <mxGeometry x="10" y="70" width="20" height="10" as="geometry"/>
                </mxCell>
                <mxCell id="9" style="edgeStyle=none;html=1;exitX=0;exitY=0.7;exitDx=0;exitDy=0;exitPerimeter=0;entryX=0.32;entryY=0.992;entryDx=0;entryDy=0;entryPerimeter=0;" edge="1" parent="1">
                    <mxGeometry relative="1" as="geometry">
                        <mxPoint x="-70" y="97" as="sourcePoint"/>
                        <mxPoint x="-63.59999999999991" y="99.92000000000002" as="targetPoint"/>
                    </mxGeometry>
                </mxCell>
                <mxCell id="11" value="" style="verticalLabelPosition=bottom;verticalAlign=top;html=1;shape=mxgraph.basic.tick" vertex="1" parent="1">
                    <mxGeometry x="30" y="110" width="20" height="10" as="geometry"/>
                </mxCell>
                <mxCell id="12" value="" style="verticalLabelPosition=bottom;verticalAlign=top;html=1;shape=mxgraph.basic.tick" vertex="1" parent="1">
                    <mxGeometry x="40" y="120" width="20" height="10" as="geometry"/>
                </mxCell>
                <mxCell id="15" value="Ideation:&amp;nbsp;&lt;br&gt;- intersting applicationa nd find data to &lt;br&gt;support it&amp;nbsp;&lt;br&gt;-&amp;nbsp;" style="shape=step;perimeter=stepPerimeter;whiteSpace=wrap;html=1;fixedSize=1;" vertex="1" parent="1">
                    <mxGeometry x="100" y="15" width="280" height="225" as="geometry"/>
                </mxCell>
            </root>
        </mxGraphModel>
    </diagram>
</mxfile>